<svg width="19" height="19" viewBox="0 0 19 19" fill="none" xmlns="http://www.w3.org/2000/svg">
<g id="flag-ru" clip-path="url(#clip0_347_1565)">
<path id="Vector" d="M9.65994 18.19C14.6305 18.19 18.6599 14.1606 18.6599 9.19C18.6599 4.21944 14.6305 0.190002 9.65994 0.190002C4.68938 0.190002 0.659943 4.21944 0.659943 9.19C0.659943 14.1606 4.68938 18.19 9.65994 18.19Z" fill="#F0F0F0"/>
<path id="Vector_2" d="M18.1001 12.3205C18.4619 11.3455 18.6599 10.291 18.6599 9.19008C18.6599 8.08919 18.4619 7.03465 18.1001 6.05966H1.21974C0.857978 7.03465 0.659943 8.08919 0.659943 9.19008C0.659943 10.291 0.857978 11.3455 1.21974 12.3205L9.65994 13.1031L18.1001 12.3205Z" fill="#0052B4"/>
<path id="Vector_3" d="M9.65972 18.1899C13.5294 18.1899 16.8282 15.7475 18.0999 12.3203H1.21951C2.49115 15.7475 5.79003 18.1899 9.65972 18.1899Z" fill="#D80027"/>
</g>
<defs>
<clipPath id="clip0_347_1565">
<rect width="18" height="18" fill="white" transform="translate(0.659943 0.190002)"/>
</clipPath>
</defs>
</svg>
