<svg width="106" height="43" viewBox="0 0 106 43" fill="none" xmlns="http://www.w3.org/2000/svg">
<g id="Link &#226;&#134;&#146; SVG" clip-path="url(#clip0_347_1589)">
<path id="Vector" d="M1.80176 1.779C0.239421 3.33717 0.239421 5.76844 1.80176 7.38033C3.41798 8.9385 5.85576 8.9385 7.4181 7.38033C9.04779 5.76844 9.04779 3.33717 7.47198 1.779C5.90964 0.153665 3.3641 0.153665 1.80176 1.779Z" fill="#DD1470"/>
<path id="Vector_2" d="M7.76833 12.874H1.50549V41.7807H7.76833V12.874Z" fill="#DD1470"/>
<path id="Vector_3" d="M58.6249 12.1219C54.1668 12.1219 50.4495 13.5726 47.6077 16.5143C45.3315 18.8382 43.9577 21.6187 43.4998 24.8559C43.4998 24.8828 43.4729 24.8962 43.4594 24.8962H40.7792C40.7522 24.8962 40.7388 24.8828 40.7388 24.8559V1.3625C40.7388 1.33564 40.7253 1.3222 40.6984 1.3222H34.5298C34.5029 1.3222 34.4894 1.33564 34.4894 1.3625V16.8636C34.4894 16.9039 34.4355 16.9173 34.4086 16.8905C32.0382 13.7204 28.698 12.1354 24.3477 12.1354C20.3475 12.1354 16.9939 13.5861 14.1521 16.5278C11.3102 19.4695 9.92297 23.056 9.92297 27.3409C9.92297 31.5587 11.3102 35.1989 14.1521 38.1541C16.9939 41.0958 20.3475 42.5465 24.3477 42.5465C28.7114 42.5465 32.0382 40.9614 34.4086 37.7377C34.4355 37.7108 34.4894 37.7242 34.4894 37.7645V41.754C34.4894 41.7808 34.5029 41.7943 34.5298 41.7943H40.6984C40.7253 41.7943 40.7388 41.7808 40.7388 41.754V30.0543C40.7388 30.0274 40.7522 30.014 40.7792 30.014H43.4863C43.5133 30.014 43.5267 30.0274 43.5267 30.0543C44.0116 33.2646 45.3854 36.0049 47.6615 38.2884C50.5573 41.1226 54.3823 42.5599 59.0828 42.5599C64.6857 42.5599 68.9148 40.4913 71.7431 36.3004C71.7566 36.2735 71.7566 36.2467 71.7297 36.2332L66.6521 33.2646C66.6386 33.2512 66.6117 33.2646 66.5982 33.2781C64.9146 35.6288 62.4364 36.8242 59.1501 36.8242C54.3554 36.8242 50.8401 34.4198 49.8838 30.0543C49.8838 30.0274 49.8973 30.0005 49.9243 30.0005H72.9014C72.9284 30.0005 72.9418 29.9871 72.9418 29.9603C73.1169 28.8857 73.1708 28.026 73.1708 27.3946C73.1708 23.1768 71.7835 19.5366 69.0629 16.5815C66.3288 13.6264 62.854 12.1219 58.6249 12.1219ZM40.7388 29.9334C40.7388 29.9603 40.7253 29.9737 40.6984 29.9737H34.1931C34.1796 29.9871 34.1662 29.9871 34.1527 30.0005C33.7486 31.4916 32.9944 32.8079 31.89 33.9631C30.1526 35.6959 27.9437 36.569 25.3443 36.569C24.2399 36.569 23.2163 36.4078 22.2735 36.0989C22.2331 36.0452 22.2062 35.9914 22.1523 35.9377V32.6602C22.1523 32.5662 22.085 32.499 21.9907 32.499H16.2262C16.1185 32.499 16.0376 32.4184 16.0376 32.3109V29.6513C16.0376 29.5573 16.1184 29.4767 16.2127 29.4767H22.0042C22.0984 29.4767 22.1658 29.4095 22.1658 29.3155V25.541C22.1658 25.4469 22.0984 25.3798 22.0042 25.3798H16.2397C16.1319 25.3798 16.0511 25.2992 16.0511 25.1917V22.5321C16.0511 22.4381 16.1319 22.3575 16.2262 22.3575H22.0176C22.1119 22.3575 22.1793 22.2903 22.1793 22.1963V18.6904C22.2197 18.6367 22.2466 18.5829 22.287 18.5292C23.2433 18.2203 24.2669 18.0456 25.3578 18.0456C27.9707 18.0456 30.166 18.9188 31.9035 20.7053C33.0752 21.8739 33.8429 23.2574 34.22 24.829C34.2335 24.8425 34.247 24.8559 34.2604 24.8559H40.7118C40.7388 24.8559 40.7522 24.8693 40.7522 24.8962V29.9334H40.7388ZM66.8002 24.8962H49.8704C49.8434 24.8962 49.8165 24.8693 49.83 24.8425C50.7189 20.4769 53.9513 17.7904 58.571 17.7904C62.6654 17.7904 65.9652 20.1948 66.8541 24.8425C66.8541 24.8693 66.8272 24.8962 66.8002 24.8962Z" fill="#DD1470"/>
<path id="Vector_4" d="M99.3673 16.9714C96.9969 13.7342 93.6298 12.1088 89.2256 12.1088C85.2255 12.1088 81.8718 13.5595 79.03 16.5013C76.1882 19.443 74.8009 23.0294 74.8009 27.3144C74.8009 31.5322 76.1882 35.1724 79.03 38.1275C81.8718 41.0693 85.2255 42.52 89.2256 42.52C93.6298 42.52 96.9969 40.8946 99.3673 37.6037V41.7677H105.63V12.8745H99.3673V16.9714ZM96.7679 33.9635C95.0305 35.6963 92.8217 36.5694 90.2223 36.5694C87.6094 36.5694 85.414 35.6963 83.6766 33.9635C81.9392 32.177 81.0637 29.974 81.0637 27.3144C81.0637 24.6548 81.9392 22.4518 83.6766 20.7191C85.414 18.9325 87.6229 18.0594 90.2223 18.0594C92.8351 18.0594 95.0305 18.9325 96.7679 20.7191C98.5054 22.4518 99.3808 24.6548 99.3808 27.3144C99.3673 29.974 98.5054 32.177 96.7679 33.9635Z" fill="#DD1470"/>
</g>
<defs>
<clipPath id="clip0_347_1589">
<rect width="105" height="42" fill="white" transform="translate(0.630005 0.559998)"/>
</clipPath>
</defs>
</svg>
